HIERARCHY
ROOT hip
{
	OFFSET	0.00  0.00  0.00 
	CHANNELS 6 Xposition Yposition Zposition Xrotation Zrotation Yrotation
	JOINT abdomen
	{
		OFFSET	0.000000 1.799998 0.000000
		CHANNELS 3 Xrotation Zrotation Yrotation
		JOINT chest
		{
			OFFSET	0.000000 4.464001 -0.360000
			CHANNELS 3 Xrotation Zrotation Yrotation
			JOINT neck
			{
				OFFSET	0.000000 5.400002 -0.144000
				CHANNELS 3 Xrotation Zrotation Yrotation
				JOINT head
				{
					OFFSET	0.000000 1.655998 0.000000
					CHANNELS 3 Xrotation Zrotation Yrotation
					End Site
					{
						OFFSET 0.000000 1.656000 0.000000
					}
				}
			}
			JOINT lCollar
			{
				OFFSET	1.800000 3.528000 -0.432000
				CHANNELS 3 Yrotation Zrotation Xrotation
				JOINT lShldr
				{
					OFFSET	1.728000 0.000000 0.000000
					CHANNELS 3 Zrotation Yrotation Xrotation
					JOINT lForeArm
					{
						OFFSET	5.328000 0.000000 0.000000
						CHANNELS 3 Yrotation Zrotation Xrotation
						JOINT lHand
						{
							OFFSET	4.464000 0.000000 0.000000
							CHANNELS 3 Zrotation Yrotation Xrotation
							End Site
							{
								OFFSET 2.160000 0.000000 0.000000
							}
						}
					}
				}
			}
			JOINT rCollar
			{
				OFFSET	-1.872000 3.528000 -0.432000
				CHANNELS 3 Yrotation Zrotation Xrotation
				JOINT rShldr
				{
					OFFSET	-1.656000 0.000000 0.000000
					CHANNELS 3 Zrotation Yrotation Xrotation
					JOINT rForeArm
					{
						OFFSET	-5.400000 0.000000 0.000000
						CHANNELS 3 Yrotation Zrotation Xrotation
						JOINT rHand
						{
							OFFSET	-4.392000 0.000000 0.000000
							CHANNELS 3 Zrotation Yrotation Xrotation
							End Site
							{
								OFFSET -2.160000 0.000000 0.000000
							}
						}
					}
				}
			}
		}
	}
	JOINT lThigh
	{
		OFFSET	2.808000 -0.864002 0.720000
		CHANNELS 3 Xrotation Zrotation Yrotation
		JOINT lShin
		{
			OFFSET	-1.080000 -10.583999 0.000000
			CHANNELS 3 Xrotation Zrotation Yrotation
			JOINT lFoot
			{
				OFFSET	0.000000 -10.152000 -0.648000
				CHANNELS 3 Xrotation Yrotation Zrotation
				End Site
				{
					OFFSET 0.000000 -1.296000 2.448000
				}
			}
		}
	}
	JOINT rThigh
	{
		OFFSET	-2.808000 -0.864002 0.720000
		CHANNELS 3 Xrotation Zrotation Yrotation
		JOINT rShin
		{
			OFFSET	1.080000 -10.583999 0.000000
			CHANNELS 3 Xrotation Zrotation Yrotation
			JOINT rFoot
			{
				OFFSET	0.000000 -10.152000 -0.648000
				CHANNELS 3 Xrotation Yrotation Zrotation
				End Site
				{
					OFFSET 0.000000 -1.296000 2.448000
				}
			}
		}
	}
}
MOTION
Frames:     8
Frame Time: 0.033333
0.000000 23.132980 0.000000 0.000000 0.000000 0.000000 -0.341797 -0.722656 -0.576172 -0.429804 -0.624609 -0.449113 0.000000 0.000000 0.000000 0.000000 0.000000 0.000000 0.281988 -8.000000 -0.002729 0.000000 -4.000000 0.000000 -8.000000 0.000000 0.000000 -7.000000 0.000000 0.000000 0.000000 8.000000 -0.194249 -0.260207 4.000000 -0.449221 8.000000 0.000000 0.000000 7.000000 0.000000 0.000000 -5.184050 4.999410 0.038727 10.249900 -1.990220 -0.099961 8.963550 0.919110 2.636360 -5.180720 -5.496240 -0.173502 10.512400 2.362380 0.153930 11.921100 0.146616 -2.066550 
0.000000 23.132980 0.000000 0.000000 0.000000 0.000000 -0.154965 -0.280236 -0.213865 -0.615169 -0.317477 -0.734544 -1.046900 0.182600 -0.705100 0.000000 0.000000 0.000000 3.398200 -9.287300 0.051900 -73.057503 0.968100 12.666100 -12.658600 1.798100 5.896600 -7.000000 0.000000 0.000000 7.830930 15.426000 -1.599570 60.369598 0.582982 10.289800 -2.261490 -3.791350 1.803150 -1.624280 3.364030 0.601251 -5.184050 4.999410 0.038727 10.249900 -1.990220 -0.099961 8.963550 0.919110 2.636360 -5.180720 -5.496240 -0.173502 10.512400 2.362380 0.153930 11.921100 0.146616 -2.066550 
0.000000 23.132980 0.000000 0.000000 0.000000 0.000000 -0.154994 -0.280379 -0.213605 -0.615420 -0.328053 -0.734151 -1.046900 0.182600 -0.705100 0.000000 0.000000 0.000000 3.398200 -9.287300 0.051900 -73.057503 0.968100 12.666100 -12.658600 1.798100 5.896600 -7.000000 0.000000 0.000000 7.831352 15.410658 -1.597121 60.488380 0.584288 10.292600 -2.205215 -3.656015 1.808415 -1.384717 3.270585 0.584550 -5.184050 4.999410 0.038727 10.249900 -1.990220 -0.099961 8.963550 0.919110 2.636360 -5.180720 -5.496240 -0.173502 10.512400 2.362380 0.153930 11.921100 0.146616 -2.066550 
0.000000 23.132980 0.000000 0.000000 0.000000 0.000000 -0.155022 -0.280523 -0.213345 -0.615671 -0.338628 -0.733758 -1.046900 0.182600 -0.705100 0.000000 0.000000 0.000000 3.398200 -9.287300 0.051900 -73.057503 0.968100 12.666100 -12.658600 1.798100 5.896600 -7.000000 0.000000 0.000000 7.831773 15.395316 -1.594672 60.607162 0.585594 10.295400 -2.148941 -3.520680 1.813681 -1.145153 3.177139 0.567848 -5.184050 4.999410 0.038727 10.249900 -1.990220 -0.099961 8.963550 0.919110 2.636360 -5.180720 -5.496240 -0.173502 10.512400 2.362380 0.153930 11.921100 0.146616 -2.066550 
0.000000 23.132980 0.000000 0.000000 0.000000 0.000000 -0.155051 -0.280666 -0.213085 -0.615922 -0.349204 -0.733365 -1.046900 0.182600 -0.705100 0.000000 0.000000 0.000000 3.398200 -9.287300 0.051900 -73.057503 0.968100 12.666100 -12.658600 1.798100 5.896600 -7.000000 0.000000 0.000000 7.832195 15.379974 -1.592223 60.725945 0.586900 10.298200 -2.092666 -3.385346 1.818946 -0.905590 3.083694 0.551147 -5.184050 4.999410 0.038727 10.249900 -1.990220 -0.099961 8.963550 0.919110 2.636360 -5.180720 -5.496240 -0.173502 10.512400 2.362380 0.153930 11.921100 0.146616 -2.066550 
0.000000 23.132980 0.000000 0.000000 0.000000 0.000000 -0.155080 -0.280810 -0.212824 -0.616172 -0.359780 -0.732972 -1.046900 0.182600 -0.705100 0.000000 0.000000 0.000000 3.398200 -9.287300 0.051900 -73.057503 0.968100 12.666100 -12.658600 1.798100 5.896600 -7.000000 0.000000 0.000000 7.832616 15.364633 -1.589773 60.844727 0.588206 10.301000 -2.036391 -3.250011 1.824211 -0.666027 2.990249 0.534445 -5.184050 4.999410 0.038727 10.249900 -1.990220 -0.099961 8.963550 0.919110 2.636360 -5.180720 -5.496240 -0.173502 10.512400 2.362380 0.153930 11.921100 0.146616 -2.066550 
0.000000 23.132980 0.000000 0.000000 0.000000 0.000000 -0.155109 -0.280953 -0.212564 -0.616423 -0.370355 -0.732579 -1.046900 0.182600 -0.705100 0.000000 0.000000 0.000000 3.398200 -9.287300 0.051900 -73.057503 0.968100 12.666100 -12.658600 1.798100 5.896600 -7.000000 0.000000 0.000000 7.833038 15.349291 -1.587324 60.963509 0.589512 10.303800 -1.980117 -3.114676 1.829476 -0.426463 2.896803 0.517744 -5.184050 4.999410 0.038727 10.249900 -1.990220 -0.099961 8.963550 0.919110 2.636360 -5.180720 -5.496240 -0.173502 10.512400 2.362380 0.153930 11.921100 0.146616 -2.066550 
0.000000 23.132980 0.000000 0.000000 0.000000 0.000000 -0.155137 -0.281097 -0.212304 -0.616674 -0.380931 -0.732186 -1.046900 0.182600 -0.705100 0.000000 0.000000 0.000000 3.398200 -9.287300 0.051900 -73.057503 0.968100 12.666100 -12.658600 1.798100 5.896600 -7.000000 0.000000 0.000000 7.833459 15.333949 -1.584875 61.082291 0.590818 10.306600 -1.923842 -2.979342 1.834741 -0.186900 2.803358 0.501043 -5.184050 4.999410 0.038727 10.249900 -1.990220 -0.099961 8.963550 0.919110 2.636360 -5.180720 -5.496240 -0.173502 10.512400 2.362380 0.153930 11.921100 0.146616 -2.066550 
